<svg width="420" height="420" viewBox="0 0 420 420" fill="none" xmlns="http://www.w3.org/2000/svg">
<g clip-path="url(#clip0_28_4)">
<path d="M330.965 0H90.09C40.8427 0 0 40.8427 0 90.09V330.965C0 380.203 40.8427 420 90.09 420H330.965C380.203 420 420 380.203 420 330.965V90.09C420 40.8427 380.203 0 330.965 0Z" fill="#0E0F0F"/>
<path d="M26.7188 291C29.4688 291.25 31.4062 291.625 32.5312 292.125C32.5312 292.375 32.2188 292.688 31.5938 293.062C31.2188 293.312 30.9062 293.562 30.6562 293.812C30.1562 294.562 29.4688 295.375 28.5938 296.25H40.2188C42.4688 296.25 44.2812 296.125 45.6562 295.875C44.7812 297 43.5938 298.688 42.0938 300.938C41.2188 302.438 40.5312 303.562 40.0312 304.312H45.4688C47.7188 304.312 49.4062 304.188 50.5312 303.938C50.5312 304.062 50.5312 304.312 50.5312 304.688C50.4062 305.812 50.3438 307.062 50.3438 308.438V312.188H52.0312C54.0312 312.188 55.7812 312.062 57.2812 311.812V315.562C55.7812 315.438 54.0312 315.375 52.0312 315.375H50.3438V321.75C50.3438 323.875 50.4688 325.688 50.7188 327.188H46.4062C46.6562 326.312 46.7188 325.25 46.5938 324H36.6562V330C37.4062 333.5 34.6562 335.062 28.4062 334.688C28.1562 333.062 27.5938 331.562 26.7188 330.188C30.5938 330.812 32.6562 330.562 32.9062 329.438V324H26.1562C23.1562 324 20.5312 324.125 18.2812 324.375V320.25C20.5312 320.625 23.2188 320.812 26.3438 320.812H32.9062V315.375H20.9062C18.0312 315.375 15.7188 315.5 13.9688 315.75V311.625C15.4688 312 17.7188 312.188 20.7188 312.188H32.9062V307.5H26.9062C25.4062 307.5 23.9688 307.562 22.5938 307.688C21.9688 307.688 21.4688 307.688 21.0938 307.688V304.688C20.2188 305.812 19.0312 306.938 17.5312 308.062C17.2812 307.938 16.9062 307.688 16.4062 307.312C15.4062 306.562 14.5312 305.938 13.7812 305.438C18.9062 302.438 23.2188 297.625 26.7188 291ZM39.2812 299.25H26.5312C26.4062 299.375 24.8438 300.938 21.8438 303.938C23.4688 304.062 25.1562 304.125 26.9062 304.125H35.9062L39.2812 299.25ZM36.6562 307.312V312.188H46.5938V307.312H36.6562ZM46.5938 315.375H36.6562V320.812H46.5938V315.375ZM66.4688 291.75C68.2188 292 71.3438 292.125 75.8438 292.125H91.7812C96.7812 292.125 99.6562 292 100.406 291.75V295.125C99.9062 294.875 97.0938 294.75 91.9688 294.75H85.2188V297H96.6562C101.156 297 103.656 296.875 104.156 296.625C103.906 297 103.781 298.25 103.781 300.375C103.781 301.875 103.906 302.938 104.156 303.562H100.031C100.156 303.188 100.219 301.812 100.219 299.438H85.2188V301.875C85.2188 305.125 85.3438 307 85.5938 307.5H81.4688C81.7188 306.5 81.8438 304.625 81.8438 301.875V299.438H67.0312C67.0312 301.812 67.0938 303.438 67.2188 304.312H63.2812C63.5312 303.438 63.6562 302.188 63.6562 300.562C63.6562 299.062 63.5312 297.75 63.2812 296.625C64.4062 296.875 67.2812 297 71.9062 297H81.8438V294.75H75.8438C71.0938 294.75 67.9688 294.938 66.4688 295.312V291.75ZM98.3438 301.125V303.938C98.2188 303.688 96.4688 303.562 93.0938 303.562C89.8438 303.562 87.9062 303.688 87.2812 303.938V301.125C88.2812 301.375 90.1562 301.5 92.9062 301.5C96.2812 301.5 98.0938 301.375 98.3438 301.125ZM69.2812 301.125C69.9062 301.375 71.5312 301.5 74.1562 301.5C77.1562 301.5 79.0312 301.375 79.7812 301.125V303.75C79.4062 303.625 77.5938 303.562 74.3438 303.562C71.2188 303.562 69.5312 303.625 69.2812 303.75V301.125ZM79.7812 304.875V307.5C79.0312 307.375 77.2188 307.312 74.3438 307.312C71.2188 307.312 69.5312 307.375 69.2812 307.5V304.875C70.0312 305.125 71.7188 305.25 74.3438 305.25C76.9688 305.25 78.7812 305.125 79.7812 304.875ZM98.3438 305.062V307.875C98.3438 307.625 96.5938 307.5 93.0938 307.5C90.3438 307.5 88.4688 307.625 87.4688 307.875V305.062C88.2188 305.312 90.0938 305.438 93.0938 305.438C95.9688 305.438 97.7188 305.312 98.3438 305.062ZM67.4062 308.25C69.5312 308.25 70.7812 308.375 71.1562 308.625C71.1562 308.75 71.0938 308.875 70.9688 309C70.7188 309.625 70.5938 310.25 70.5938 310.875H77.9062C77.9062 310.25 77.9062 309.5 77.9062 308.625C80.0312 308.625 81.0938 308.75 81.0938 309C81.0938 309.125 81.0312 309.25 80.9062 309.375C80.7812 309.75 80.7188 310.188 80.7188 310.688C82.4688 310.688 83.8438 310.625 84.8438 310.5V313.312C84.3438 313.062 82.9688 312.938 80.7188 312.938C80.7188 315.188 80.8438 316.688 81.0938 317.438C80.3438 317.188 78.4688 317.062 75.4688 317.062V319.125H77.9062C80.0312 319.125 81.9688 319 83.7188 318.75C83.3438 320 83.1562 321.188 83.1562 322.312C83.1562 324.312 83.3438 325.688 83.7188 326.438C82.4688 326.062 80.5312 325.938 77.9062 326.062H75.4688V328.125H77.5312C80.1562 328.125 82.0312 328 83.1562 327.75V330.75C82.1562 330.5 80.2812 330.375 77.5312 330.375H75.6562C75.6562 332.875 75.7188 334.188 75.8438 334.312H72.4688C72.7188 333.938 72.8438 332.625 72.8438 330.375H70.5938C66.9688 330.375 64.4688 330.5 63.0938 330.75V327.75C64.8438 328 67.2812 328.125 70.4062 328.125H72.8438V326.062H70.4062C68.0312 325.938 66.2188 326.062 64.9688 326.438C65.2188 325.812 65.3438 324.5 65.3438 322.5C65.3438 320.25 65.2188 319 64.9688 318.75C66.5938 319 68.6562 319.125 71.1562 319.125H73.0312V317.062C69.7812 317.062 67.8438 317.188 67.2188 317.438C67.4688 316.312 67.5938 314.812 67.5938 312.938C65.2188 312.938 63.6562 313.062 62.9062 313.312V310.5C63.4062 310.75 64.9688 310.875 67.5938 310.875C67.7188 309.75 67.6562 308.875 67.4062 308.25ZM101.906 309.938C101.656 310.938 101.531 313.438 101.531 317.438V330C102.281 332.875 100.219 334.375 95.3438 334.5C95.2188 333 94.7812 331.75 94.0312 330.75C96.9062 331.125 98.2812 330.812 98.1562 329.812V325.688H89.5312C88.9062 329.188 87.6562 332.188 85.7812 334.688C85.0312 334.062 83.7188 333.562 81.8438 333.188C85.2188 330.812 86.8438 325.875 86.7188 318.375C86.7188 318 86.7188 317.438 86.7188 316.688C86.8438 313.062 86.7188 310.812 86.3438 309.938C88.0938 310.188 90.8438 310.312 94.5938 310.312C97.8438 310.312 100.281 310.188 101.906 309.938ZM90.0938 312.75V316.688H98.1562V312.75H90.0938ZM77.9062 312.938H70.4062V315H77.9062V312.938ZM90.0938 318.938L89.9062 323.062H98.1562V318.938H90.0938ZM80.3438 321.188H75.4688V324H80.3438V321.188ZM73.0312 321.188H68.1562V324H73.0312V321.188ZM127.031 291.938C130.156 292.188 131.656 292.438 131.531 292.688C131.656 292.938 131.594 293.312 131.344 293.812C131.094 294.312 130.969 294.688 130.969 294.938V304.875H139.406V295.688C139.406 294.062 139.344 293 139.219 292.5C141.844 292.5 143.469 292.75 144.094 293.25C144.094 293.375 143.969 293.625 143.719 294C143.344 294.75 143.156 295.375 143.156 295.875V304.875H145.594C146.719 304.875 148.281 304.812 150.281 304.688C151.906 304.562 153.031 304.5 153.656 304.5V309.188C153.531 309.188 153.406 309.188 153.281 309.188C149.906 308.812 147.344 308.625 145.594 308.625H143.156V318.375C143.156 319.5 143.406 321.438 143.906 324.188C141.906 323.812 139.594 323.625 136.969 323.625H132.844C130.844 323.625 128.906 323.812 127.031 324.188C127.156 321.688 127.219 319.688 127.219 318.188V308.625H120.469V329.062H140.531C143.281 329.062 146.406 328.938 149.906 328.688V332.812C147.406 332.688 144.219 332.562 140.344 332.438H115.969C116.219 328.938 116.406 323.062 116.531 314.812C116.531 312.188 116.531 310.125 116.531 308.625H115.594C113.469 308.625 111.281 308.75 109.031 309V304.312C111.531 304.562 113.719 304.688 115.594 304.688H116.531V298.312C116.531 296.688 116.406 295.5 116.156 294.75C119.281 294.75 120.906 294.938 121.031 295.312C121.156 295.562 121.031 296.062 120.656 296.812C120.531 297.188 120.469 297.438 120.469 297.562V304.688H127.219V294.938C127.219 294.188 127.156 293.188 127.031 291.938ZM139.406 308.625H130.969V319.875H139.406V308.625ZM167.531 295.875V301.125H177.281V295.875H167.531ZM181.219 295.875V301.125H191.531V295.875H181.219ZM167.531 304.125V309.188H177.281V304.125H167.531ZM181.219 304.125V309.188H191.531V304.125H181.219ZM163.406 292.312C165.656 292.562 167.781 292.688 169.781 292.688H187.781C191.656 292.688 194.281 292.625 195.656 292.5C195.406 294.25 195.281 295.625 195.281 296.625V307.312C195.156 308.938 195.281 310.75 195.656 312.75C194.031 312.375 192.531 312.25 191.156 312.375H186.656C189.406 315.625 194.531 317.562 202.031 318.188C200.656 319.312 199.656 320.812 199.031 322.688C195.406 321.688 191.969 320.312 188.719 318.562V329.438C188.719 330.812 188.844 332.312 189.094 333.938H184.594C184.844 332.188 184.969 330.812 184.969 329.812V320.812C184.969 319.812 184.844 318.625 184.594 317.25C186.094 317.25 187.031 317.25 187.406 317.25C186.531 316.75 184.969 315.125 182.719 312.375H176.531C175.281 313.625 173.844 314.938 172.219 316.312C174.969 316.312 176.344 316.562 176.344 317.062C176.344 317.062 176.281 317.125 176.156 317.25C175.656 318 175.344 318.875 175.219 319.875C175.219 327.25 171.594 332 164.344 334.125C163.844 332.875 162.719 331.75 160.969 330.75C168.594 330.125 172.094 325.562 171.469 317.062C167.969 319.312 164.281 321.25 160.406 322.875C159.781 321.75 158.531 320.562 156.656 319.312C162.406 318.438 167.594 316.125 172.219 312.375H168.469C167.094 312.25 165.344 312.375 163.219 312.75C163.594 310.625 163.781 308.812 163.781 307.312V296.25C163.781 295.375 163.656 294.062 163.406 292.312ZM225.281 293.062C226.781 296.062 228.031 299.25 229.031 302.625L224.531 303.75C223.656 300.375 222.531 297.312 221.156 294.562L225.281 293.062ZM231.656 294C233.531 294.25 235.719 294.375 238.219 294.375H251.344C254.094 294.375 256.406 294.25 258.281 294V298.125C257.031 298 254.719 297.875 251.344 297.75H248.531C246.406 299.5 244.719 300.812 243.469 301.688C246.094 305.062 247.781 307.75 248.531 309.75C251.781 306.375 254.094 303.25 255.469 300.375C258.469 302.25 259.906 303.375 259.781 303.75C259.781 303.875 259.594 304 259.219 304.125C258.344 304.5 257.656 304.938 257.156 305.438C257.031 305.562 256.781 305.812 256.406 306.188C253.906 308.812 252.156 310.5 251.156 311.25C254.531 313.625 257.656 316.312 260.531 319.312C259.406 319.812 258.219 320.812 256.969 322.312C256.844 322.188 256.719 322 256.594 321.75C254.594 318.625 252.094 315.5 249.094 312.375C249.969 317.125 249.781 320.938 248.531 323.812C247.406 326.062 244.844 327.438 240.844 327.938C240.219 326.188 239.531 324.688 238.781 323.438C240.781 323.562 242.531 323.312 244.031 322.688C245.656 321.562 246.281 318.5 245.906 313.5C242.906 317.125 238.594 320.625 232.969 324C232.219 322.875 231.156 321.875 229.781 321C235.031 319.5 240.094 315.875 244.969 310.125C244.844 309.75 244.531 309.125 244.031 308.25C243.906 307.875 243.781 307.625 243.656 307.5C240.781 310.75 237.219 313.562 232.969 315.938C231.969 314.812 230.906 313.875 229.781 313.125C233.781 311.875 237.969 309.25 242.344 305.25C242.094 304.5 241.594 303.812 240.844 303.188C237.094 305.562 234.469 307.062 232.969 307.688C232.219 306.812 231.156 305.75 229.781 304.5C234.656 303.5 239.406 301.25 244.031 297.75H238.219C235.969 297.75 233.781 297.875 231.656 298.125V294ZM219.094 307.5C221.844 307.625 224.906 307.625 228.281 307.5C228.406 307.5 228.469 307.562 228.469 307.688C228.219 309.188 228.094 310.562 228.094 311.812V325.5C228.594 325.5 229.469 325.812 230.719 326.438C232.594 327.438 234.219 328.062 235.594 328.312C238.219 328.812 242.156 329 247.406 328.875C252.156 328.75 256.844 328.375 261.469 327.75C259.969 329.25 259.156 330.875 259.031 332.625C258.656 332.625 257.844 332.625 256.594 332.625C247.469 332.75 240.906 332.5 236.906 331.875C234.781 331.5 232.281 330.75 229.406 329.625C227.906 329 226.969 328.688 226.594 328.688C225.469 328.812 224.156 330.188 222.656 332.812L218.531 330.562C219.781 328.938 221.719 327.312 224.344 325.688V311.25C223.094 311.25 221.344 311.375 219.094 311.625V307.5ZM290.719 291C291.344 292.25 291.906 294 292.406 296.25H302.531C304.281 296.125 306.281 295.938 308.531 295.688V299.438C307.781 299.312 306.406 299.312 304.406 299.438C303.656 299.438 303.156 299.438 302.906 299.438H295.594V303.75H302.344C303.344 303.75 304.656 303.562 306.281 303.188C306.031 304.812 305.969 305.938 306.094 306.562V311.625C306.094 312.625 306.219 313.875 306.469 315.375C304.844 315.25 303.469 315.188 302.344 315.188H296.156V321.375C299.406 320.375 302.469 318.875 305.344 316.875C307.469 318.875 308.469 320.125 308.344 320.625C308.344 320.75 308.031 320.812 307.406 320.812C306.781 320.938 306.344 321 306.094 321C305.969 321 305.781 321.062 305.531 321.188C301.031 323.062 297.906 324.188 296.156 324.562V328.125C296.031 329.375 297.281 330 299.906 330C303.781 330.625 305.719 328.812 305.719 324.562C306.469 325.688 307.906 326.562 310.031 327.188C309.281 331.812 307.156 333.875 303.656 333.375H297.094C293.469 333.75 291.906 332.312 292.406 329.062V315.188H282.656V320.062H284.906C285.781 320.062 287.469 319.938 289.969 319.688V323.438C288.469 323.188 286.781 323.062 284.906 323.062H282.656V329.625C284.906 328.875 287.094 327.75 289.219 326.25C288.844 328 288.844 329.375 289.219 330.375C286.719 331.125 283.531 332.625 279.656 334.875L277.594 331.312C278.594 330.938 279.094 330.25 279.094 329.25V315.188H274.781C274.031 323.688 272.406 329.875 269.906 333.75C269.031 332.75 267.719 331.875 265.969 331.125C269.469 327.875 271.156 320 271.031 307.5V299.438C271.031 297.938 270.844 296.75 270.469 295.875C270.969 295.875 271.719 295.938 272.719 296.062C273.844 296.062 274.531 296.125 274.781 296.25H288.094C287.594 294.5 286.844 293.125 285.844 292.125L290.719 291ZM285.281 299.438V303.75H291.844V299.438H285.281ZM274.781 299.438V303.75H281.719V299.438H274.781ZM281.719 306.75H274.969C274.969 308.875 274.906 310.75 274.781 312.375H281.719V306.75ZM291.844 306.75H285.281V312.375H291.844V306.75ZM295.594 306.75V312.375H302.344V306.75H295.594ZM334.781 291.188C337.281 291.312 339.031 291.75 340.031 292.5C340.031 292.75 339.781 292.938 339.281 293.062C338.906 293.312 338.656 293.5 338.531 293.625C342.781 301.125 349.531 305.5 358.781 306.75C357.406 308.125 356.531 309.75 356.156 311.625C354.406 311.125 352.219 310.25 349.594 309V312C349.469 312 349.219 312 348.844 312C347.094 311.75 345.219 311.625 343.219 311.625H338.531V318.375H344.906C347.156 318.375 349.281 318.25 351.281 318C351.656 317.875 351.906 317.812 352.031 317.812V322.125C352.031 322.125 351.906 322.125 351.656 322.125C349.781 321.875 347.594 321.75 345.094 321.75H338.531V329.625H347.531C350.281 329.625 352.719 329.5 354.844 329.25C355.219 329.25 355.469 329.25 355.594 329.25V333.375C355.469 333.375 355.219 333.375 354.844 333.375C352.844 333.125 350.406 333 347.531 333H324.469C321.844 333 319.594 333.125 317.719 333.375C317.344 333.375 317.094 333.375 316.969 333.375V329.25C317.094 329.25 317.344 329.25 317.719 329.25C319.844 329.5 322.094 329.625 324.469 329.625H334.781V321.75H327.469C325.594 321.75 323.719 321.875 321.844 322.125C321.469 322.125 321.219 322.125 321.094 322.125V318C322.344 318.25 324.469 318.375 327.469 318.375H334.781V311.625H329.344C327.719 311.625 325.906 311.75 323.906 312C323.656 312 323.469 312 323.344 312V309.375C323.094 309.625 322.656 310 322.031 310.5C320.031 312.125 318.594 313.188 317.719 313.688C316.969 312.438 315.781 311.25 314.156 310.125C323.531 306.25 330.406 299.938 334.781 291.188ZM336.281 295.875C333.156 300.375 329.531 304.312 325.406 307.688C325.531 307.688 325.719 307.688 325.969 307.688C327.094 307.938 328.531 308.062 330.281 308.062H343.219C344.344 308.062 345.594 307.938 346.969 307.688C347.344 307.688 347.594 307.688 347.719 307.688C342.469 305.062 338.656 301.125 336.281 295.875ZM388.406 290.812C391.406 291.062 393.031 291.312 393.281 291.562C393.281 291.562 393.219 291.688 393.094 291.938C392.719 292.438 392.531 292.875 392.531 293.25V300.188H399.094C401.844 300.188 403.969 300.062 405.469 299.812V303.75C404.094 303.5 401.969 303.375 399.094 303.375H392.531C393.406 307.625 394.594 311.062 396.094 313.688C397.469 312.312 399.094 310 400.969 306.75C403.469 308.25 404.781 309.312 404.906 309.938C404.906 310.062 404.719 310.188 404.344 310.312C403.594 310.562 402.906 310.938 402.281 311.438C400.531 313.312 398.906 315.062 397.406 316.688C399.781 321.438 402.906 325.062 406.781 327.562C405.656 328.062 404.406 328.875 403.031 330C402.781 330.125 402.594 330.188 402.469 330.188C397.719 326.062 394.406 319.812 392.531 311.438V331.125C392.531 333.5 390.219 334.688 385.594 334.688C385.594 334.562 385.531 334.375 385.406 334.125C385.031 332.375 384.531 331.125 383.906 330.375C387.406 331 389.031 330.375 388.781 328.5V318.375C384.406 323.125 381.469 326.688 379.969 329.062C379.844 329.312 379.781 329.438 379.781 329.438C377.406 327.562 376.156 326.562 376.031 326.438C376.031 326.438 376.156 326.312 376.406 326.062C380.281 323.438 384.406 319.25 388.781 313.5V303.375H385.031C381.781 303.375 379.656 303.438 378.656 303.562V299.625C380.031 300 382.094 300.188 384.844 300.188H388.781V294.188C388.781 292.688 388.656 291.562 388.406 290.812ZM398.906 291.562C399.781 292.562 400.906 294.375 402.281 297L398.344 298.688C397.594 296.688 396.531 294.938 395.156 293.438L398.906 291.562ZM362.906 296.625C363.531 296.875 365.281 297 368.156 297H372.656C374.531 297 376.219 296.875 377.719 296.625V300.75C376.719 300.5 375.219 300.375 373.219 300.375H372.094V309C372.969 309 374.031 308.938 375.281 308.812C376.156 308.812 376.844 308.812 377.344 308.812V312.75C375.844 312.5 374.094 312.375 372.094 312.375V322.125C374.844 321 376.844 320.062 378.094 319.312C377.969 320.812 377.969 322.125 378.094 323.25C370.969 326.375 366.281 328.688 364.031 330.188C363.781 330.312 363.656 330.375 363.656 330.375C363.031 328.375 362.406 326.938 361.781 326.062C361.781 326.062 361.969 326 362.344 325.875C363.969 325.375 366.031 324.625 368.531 323.625V312.375C365.906 312.375 364.156 312.5 363.281 312.75V308.625C363.531 308.625 363.906 308.688 364.406 308.812C365.781 308.938 367.156 309 368.531 309V300.375H368.156C366.281 300.375 364.531 300.5 362.906 300.75V296.625ZM382.406 307.312C383.281 308.438 384.719 310.5 386.719 313.5L382.969 315.562C382.594 314.562 381.281 312.438 379.031 309.188L382.406 307.312Z" fill="#D6D6D6"/>
<path d="M187.769 118.978V124.667C187.769 126.279 188.291 127.653 189.334 128.791C190.472 129.929 191.846 130.498 193.458 130.498C194.217 130.498 194.881 130.782 195.449 131.351C196.018 131.825 196.303 132.441 196.303 133.2C196.303 133.959 196.018 134.622 195.449 135.191C194.881 135.76 194.217 136.044 193.458 136.044C190.329 136.044 187.627 134.954 185.352 132.773C183.171 130.498 182.081 127.796 182.081 124.667V118.978H162.169V133.2C162.169 133.959 161.885 134.622 161.316 135.191C160.747 135.665 160.084 135.902 159.325 135.902C158.566 135.902 157.903 135.665 157.334 135.191C156.765 134.622 156.481 133.959 156.481 133.2V118.978H142.258C140.646 118.978 139.272 119.547 138.134 120.684C137.091 121.727 136.569 123.055 136.569 124.667C136.569 127.796 135.432 130.45 133.156 132.631C130.975 134.812 128.321 135.902 125.192 135.902C124.433 135.902 123.769 135.665 123.201 135.191C122.726 134.622 122.489 133.959 122.489 133.2C122.489 132.441 122.726 131.778 123.201 131.209C123.769 130.64 124.433 130.356 125.192 130.356C126.804 130.356 128.131 129.834 129.174 128.791C130.312 127.653 130.881 126.279 130.881 124.667C130.881 121.538 131.971 118.883 134.152 116.702C136.427 114.427 139.129 113.289 142.258 113.289H159.325H184.925H193.458C194.217 113.289 194.881 113.573 195.449 114.142C196.018 114.711 196.303 115.375 196.303 116.133C196.303 116.892 196.018 117.556 195.449 118.124C194.881 118.693 194.217 118.978 193.458 118.978H187.769ZM162.169 195.778V227.067C162.169 227.825 161.885 228.489 161.316 229.058C160.747 229.627 160.084 229.911 159.325 229.911C158.566 229.911 157.903 229.627 157.334 229.058C156.765 228.489 156.481 227.825 156.481 227.067V195.778H133.725C132.966 195.778 132.303 195.493 131.734 194.924C131.165 194.356 130.881 193.692 130.881 192.933C130.881 192.175 131.165 191.511 131.734 190.942C132.303 190.373 132.966 190.089 133.725 190.089H156.481V170.178H116.658C115.9 170.178 115.236 169.893 114.667 169.324C114.098 168.756 113.814 168.092 113.814 167.333C113.814 166.575 114.098 165.911 114.667 165.342C115.236 164.773 115.9 164.489 116.658 164.489H156.481V153.111H133.725C132.966 153.111 132.303 152.827 131.734 152.258C131.165 151.689 130.881 151.025 130.881 150.267C130.881 149.508 131.165 148.844 131.734 148.276C132.303 147.707 132.966 147.422 133.725 147.422H159.325H167.858C172.884 147.422 177.245 149.081 180.943 152.4C184.735 155.719 186.916 159.843 187.485 164.773C192.415 165.342 196.54 167.523 199.858 171.316C203.177 175.013 204.836 179.375 204.836 184.4C204.836 185.159 204.552 185.822 203.983 186.391C203.414 186.96 202.75 187.244 201.992 187.244C201.233 187.244 200.569 186.96 200.001 186.391C199.432 185.822 199.147 185.159 199.147 184.4C199.147 180.987 198.057 177.953 195.876 175.298C193.695 172.643 190.993 170.984 187.769 170.32V175.867C187.769 181.366 185.826 186.059 181.938 189.947C178.051 193.834 173.358 195.778 167.858 195.778H162.169ZM162.169 153.111V164.489H181.938C181.275 161.265 179.615 158.563 176.961 156.382C174.306 154.201 171.272 153.111 167.858 153.111H162.169ZM162.169 170.178V190.089H167.858C171.841 190.089 175.206 188.714 177.956 185.964C180.706 183.215 182.081 179.849 182.081 175.867V170.178H162.169ZM281.611 173.022H287.3C292.799 173.022 297.493 174.966 301.38 178.853C305.267 182.741 307.211 187.434 307.211 192.933V210C307.211 210.759 306.927 211.422 306.358 211.991C305.789 212.56 305.125 212.844 304.367 212.844C303.608 212.844 302.944 212.56 302.376 211.991C301.807 211.422 301.522 210.759 301.522 210V192.933C301.522 188.951 300.147 185.585 297.398 182.836C294.648 180.086 291.282 178.711 287.3 178.711H281.611V192.933C281.611 198.433 279.667 203.126 275.78 207.013C271.893 210.901 267.199 212.844 261.7 212.844H253.167C252.408 212.844 251.744 212.56 251.176 211.991C250.607 211.422 250.322 210.759 250.322 210C250.322 209.241 250.607 208.578 251.176 208.009C251.744 207.44 252.408 207.156 253.167 207.156H261.7C265.682 207.156 269.048 205.781 271.798 203.031C274.547 200.281 275.922 196.916 275.922 192.933V178.711H253.167C252.408 178.711 251.744 178.427 251.176 177.858C250.607 177.289 250.322 176.625 250.322 175.867C250.322 175.108 250.607 174.444 251.176 173.876C251.744 173.307 252.408 173.022 253.167 173.022H275.922V161.644H253.167C252.408 161.644 251.744 161.36 251.176 160.791C250.607 160.222 250.322 159.559 250.322 158.8C250.322 158.041 250.607 157.378 251.176 156.809C251.744 156.24 252.408 155.956 253.167 155.956H275.922V144.578H253.167C252.408 144.578 251.744 144.293 251.176 143.724C250.607 143.156 250.322 142.492 250.322 141.733C250.322 140.975 250.607 140.311 251.176 139.742C251.744 139.173 252.408 138.889 253.167 138.889H278.767C280.379 138.889 281.706 138.367 282.749 137.324C283.887 136.187 284.456 134.812 284.456 133.2V118.978H253.167C252.408 118.978 251.744 118.693 251.176 118.124C250.607 117.556 250.322 116.892 250.322 116.133C250.322 115.375 250.607 114.711 251.176 114.142C251.744 113.573 252.408 113.289 253.167 113.289H287.3H304.367C305.125 113.289 305.789 113.573 306.358 114.142C306.927 114.711 307.211 115.375 307.211 116.133C307.211 116.892 306.927 117.556 306.358 118.124C305.789 118.693 305.125 118.978 304.367 118.978H290.144V133.2C290.144 135.855 289.339 138.178 287.727 140.169C286.115 142.16 284.076 143.487 281.611 144.151V158.8V173.022ZM230.411 190.089H236.1C236.859 190.089 237.522 190.373 238.091 190.942C238.66 191.511 238.944 192.175 238.944 192.933C238.944 193.692 238.66 194.356 238.091 194.924C237.522 195.493 236.859 195.778 236.1 195.778H230.411V224.222H304.367C305.125 224.222 305.789 224.507 306.358 225.076C306.927 225.644 307.211 226.308 307.211 227.067C307.211 227.825 306.927 228.489 306.358 229.058C305.789 229.627 305.125 229.911 304.367 229.911H227.567C224.438 229.911 221.736 228.773 219.46 226.498C217.279 224.317 216.189 221.662 216.189 218.533V192.933C216.189 192.175 216.473 191.511 217.042 190.942C217.611 190.373 218.275 190.089 219.033 190.089C219.792 190.089 220.456 190.373 221.024 190.942C221.593 191.511 221.878 192.175 221.878 192.933V218.533C221.878 220.809 222.826 222.468 224.722 223.511V192.933V161.644H219.033C218.275 161.644 217.611 161.36 217.042 160.791C216.473 160.222 216.189 159.559 216.189 158.8C216.189 158.041 216.473 157.378 217.042 156.809C217.611 156.24 218.275 155.956 219.033 155.956H227.567C229.179 155.956 230.506 155.434 231.549 154.391C232.687 153.253 233.256 151.879 233.256 150.267C233.256 149.508 233.54 148.844 234.109 148.276C234.678 147.707 235.341 147.422 236.1 147.422C236.859 147.422 237.522 147.707 238.091 148.276C238.66 148.844 238.944 149.508 238.944 150.267C238.944 152.921 238.139 155.244 236.527 157.236C234.915 159.227 232.876 160.554 230.411 161.218V190.089ZM219.033 138.889H227.567C229.179 138.889 230.506 138.367 231.549 137.324C232.687 136.187 233.256 134.812 233.256 133.2C233.256 132.441 233.54 131.778 234.109 131.209C234.678 130.64 235.341 130.356 236.1 130.356C236.859 130.356 237.522 130.64 238.091 131.209C238.66 131.778 238.944 132.441 238.944 133.2C238.944 136.329 237.807 139.031 235.531 141.307C233.35 143.487 230.696 144.578 227.567 144.578H219.033C218.275 144.578 217.611 144.293 217.042 143.724C216.473 143.156 216.189 142.492 216.189 141.733C216.189 140.975 216.473 140.311 217.042 139.742C217.611 139.173 218.275 138.889 219.033 138.889ZM219.033 121.822H227.567C229.179 121.822 230.506 121.301 231.549 120.258C232.687 119.12 233.256 117.745 233.256 116.133C233.256 115.375 233.54 114.711 234.109 114.142C234.678 113.573 235.341 113.289 236.1 113.289C236.859 113.289 237.522 113.573 238.091 114.142C238.66 114.711 238.944 115.375 238.944 116.133C238.944 119.262 237.807 121.964 235.531 124.24C233.35 126.421 230.696 127.511 227.567 127.511H219.033C218.275 127.511 217.611 127.227 217.042 126.658C216.473 126.089 216.189 125.425 216.189 124.667C216.189 123.908 216.473 123.244 217.042 122.676C217.611 122.107 218.275 121.822 219.033 121.822Z" fill="#D6D6D6"/>
</g>
<defs>
<clipPath id="clip0_28_4">
<rect width="420" height="420" fill="white"/>
</clipPath>
</defs>
</svg>
